<?xml version="1.0" standalone="no"?>
<!DOCTYPE svg PUBLIC "-//W3C//DTD SVG 20010904//EN"
 "http://www.w3.org/TR/2001/REC-SVG-20010904/DTD/svg10.dtd">
<svg version="1.0" xmlns="http://www.w3.org/2000/svg"
 width="100.000000pt" height="100.000000pt" viewBox="0 0 100.000000 100.000000"
 preserveAspectRatio="xMidYMid meet">
<metadata>
Created by potrace 1.11, written by Peter Selinger 2001-2013
</metadata>
<g transform="translate(0.000000,100.000000) scale(0.100000,-0.100000)"
fill="#000000" stroke="none">
<path d="M0 500 l0 -500 500 0 500 0 0 500 0 500 -500 0 -500 0 0 -500z m928
140 c36 -22 38 -29 17 -70 -20 -40 -39 -39 -31 0 6 33 -20 70 -49 70 -40 0
-66 -24 -81 -78 -24 -81 -6 -167 40 -198 31 -20 63 -13 105 22 37 31 44 10 8
-24 -104 -98 -256 7 -233 162 8 49 52 111 90 126 38 15 100 11 134 -10z m-684
-7 c3 -10 21 -74 42 -143 20 -69 43 -130 50 -136 24 -19 16 -24 -46 -24 -33 0
-60 4 -60 10 0 6 6 10 14 10 9 0 12 8 8 25 -4 24 -8 25 -72 25 -64 0 -68 -1
-72 -25 -4 -17 -1 -25 8 -25 8 0 14 -4 14 -10 0 -5 -18 -10 -40 -10 -22 0 -40
5 -40 10 0 6 6 10 13 10 18 0 97 274 80 278 -33 8 -8 22 41 22 43 0 56 -4 60
-17z m353 -3 c56 -34 56 -96 0 -131 -19 -11 -25 -19 -16 -19 9 0 28 -10 43
-21 36 -28 33 -73 -7 -103 -24 -18 -45 -21 -135 -24 -93 -2 -105 -1 -89 11 15
12 17 32 17 147 0 115 -2 135 -17 146 -15 11 -4 13 77 14 77 0 101 -4 127 -20z"/>
<path d="M152 522 c-12 -43 -22 -81 -22 -85 0 -4 23 -7 50 -7 28 0 50 3 50 7
0 16 -45 163 -50 163 -3 0 -15 -35 -28 -78z"/>
<path d="M480 560 c0 -64 2 -70 20 -70 29 0 70 44 70 75 0 32 -33 65 -65 65
-24 0 -25 -2 -25 -70z"/>
<path d="M480 410 c0 -59 0 -60 28 -60 41 0 72 26 72 60 0 34 -31 60 -72 60
-28 0 -28 -1 -28 -60z"/>
</g>
</svg>
