<svg version="1" xmlns="http://www.w3.org/2000/svg" width="133.333" height="133.333" viewBox="0 0 100 100"><path d="M0 50v50h100V0H0v50zm92.8-14c3.6 2.2 3.8 2.9 1.7 7-2 4-3.9 3.9-3.1 0 .6-3.3-2-7-4.9-7-4 0-6.6 2.4-8.1 7.8-2.4 8.1-.6 16.7 4 19.8 3.1 2 6.3 1.3 10.5-2.2 3.7-3.1 4.4-1 .8 2.4-10.4 9.8-25.6-.7-23.3-16.2.8-4.9 5.2-11.1 9-12.6s10-1.1 13.4 1zm-68.4.7c.3 1 2.1 7.4 4.2 14.3 2 6.9 4.3 13 5 13.6C36 66.5 35.2 67 29 67c-3.3 0-6-.4-6-1s.6-1 1.4-1c.9 0 1.2-.8.8-2.5-.4-2.4-.8-2.5-7.2-2.5s-6.8.1-7.2 2.5c-.4 1.7-.1 2.5.8 2.5.8 0 1.4.4 1.4 1 0 .5-1.8 1-4 1s-4-.5-4-1c0-.6.6-1 1.3-1 1.8 0 9.7-27.4 8-27.8-3.3-.8-.8-2.2 4.1-2.2 4.3 0 5.6.4 6 1.7zm35.3.3c5.6 3.4 5.6 9.6 0 13.1-1.9 1.1-2.5 1.9-1.6 1.9.9 0 2.8 1 4.3 2.1 3.6 2.8 3.3 7.3-.7 10.3-2.4 1.8-4.5 2.1-13.5 2.4-9.3.2-10.5.1-8.9-1.1C40.8 64.5 41 62.5 41 51s-.2-13.5-1.7-14.6c-1.5-1.1-.4-1.3 7.7-1.4 7.7 0 10.1.4 12.7 2z"/><path d="M15.2 47.8C14 52.1 13 55.9 13 56.3c0 .4 2.3.7 5 .7 2.8 0 5-.3 5-.7 0-1.6-4.5-16.3-5-16.3-.3 0-1.5 3.5-2.8 7.8zM48 44c0 6.4.2 7 2 7 2.9 0 7-4.4 7-7.5 0-3.2-3.3-6.5-6.5-6.5-2.4 0-2.5.2-2.5 7zm0 15c0 5.9 0 6 2.8 6 4.1 0 7.2-2.6 7.2-6s-3.1-6-7.2-6c-2.8 0-2.8.1-2.8 6z"/></svg>